<?xml version="1.0" encoding="UTF-8" standalone="no"?>
<!-- Generated by Microsoft Visio, SVG Export Bus-Arrival-Links.svg Page-2 -->

<svg
   xmlns:v="http://schemas.microsoft.com/visio/2003/SVGExtensions/"
   xmlns:dc="http://purl.org/dc/elements/1.1/"
   xmlns:cc="http://creativecommons.org/ns#"
   xmlns:rdf="http://www.w3.org/1999/02/22-rdf-syntax-ns#"
   xmlns:svg="http://www.w3.org/2000/svg"
   xmlns="http://www.w3.org/2000/svg"
   xmlns:sodipodi="http://sodipodi.sourceforge.net/DTD/sodipodi-0.dtd"
   xmlns:inkscape="http://www.inkscape.org/namespaces/inkscape"
   width="11.6929in"
   height="8.26772in"
   viewBox="0 0 841.89 595.276"
   xml:space="preserve"
   color-interpolation-filters="sRGB"
   class="st9"
   version="1.1"
   id="svg4739"
   sodipodi:docname="bus-arrival-links-narrow.svg"
   inkscape:version="0.92.1 r15371"><metadata
   id="metadata4745"><rdf:RDF><cc:Work
       rdf:about=""><dc:format>image/svg+xml</dc:format><dc:type
         rdf:resource="http://purl.org/dc/dcmitype/StillImage" /><dc:title></dc:title></cc:Work></rdf:RDF></metadata><defs
   id="defs4743">
		
		
		
		
		
		
		
		
		
		
		
		
		
		
		
		
		
		
		
	
			
			
			
			
			
					
			
			
			
			
			
					
			
			
			
			
			
					</defs><sodipodi:namedview
   pagecolor="#ffffff"
   bordercolor="#666666"
   borderopacity="1"
   objecttolerance="10"
   gridtolerance="10"
   guidetolerance="10"
   inkscape:pageopacity="0"
   inkscape:pageshadow="2"
   inkscape:window-width="1600"
   inkscape:window-height="838"
   id="namedview4741"
   showgrid="false"
   inkscape:zoom="1.4877997"
   inkscape:cx="352.14179"
   inkscape:cy="190.3115"
   inkscape:window-x="-8"
   inkscape:window-y="-8"
   inkscape:window-maximized="1"
   inkscape:current-layer="svg4739"
   inkscape:lockguides="false" />
	<v:documentProperties
   v:langID="1030"
   v:viewMarkup="false" />

	<style
   type="text/css"
   id="style4485">
	<![CDATA[
		.st1 {fill:#000000;stroke:none;stroke-linecap:butt;stroke-width:0.75}
		.st2 {fill:#f8b133;stroke:none;stroke-linecap:butt;stroke-width:0.75}
		.st3 {fill:#ffffff;stroke:none;stroke-linecap:butt;stroke-width:0.75}
		.st4 {fill:#e41a1c;stroke:none;stroke-linecap:round;stroke-linejoin:round;stroke-width:0.75}
		.st5 {fill:#ffffff;font-family:Calibri;font-size:0.833336em}
		.st6 {fill:#377eb8;stroke:none;stroke-linecap:round;stroke-linejoin:round;stroke-width:0.75}
		.st7 {fill:#4daf4a;stroke:none;stroke-linecap:round;stroke-linejoin:round;stroke-width:0.75}
		.st8 {fill:#984ea3;stroke:none;stroke-linecap:round;stroke-linejoin:round;stroke-width:0.75}
		.st9 {fill:none;fill-rule:evenodd;font-size:12px;overflow:visible;stroke-linecap:square;stroke-miterlimit:3}
	]]>
	</style>

	<g
   transform="matrix(0.556702,0,0,1,29.090219,-54.45)"
   v:groupContext="shape"
   v:mID="1"
   id="shape1-1">
			<title
   id="title4489">Sheet.1</title>
			<path
   style="fill:#000000;stroke:none;stroke-width:0.75;stroke-linecap:butt"
   inkscape:connector-curvature="0"
   id="path4491"
   class="st1"
   d="M 804.47,575.78 H 1.45 c -0.76,0 -1.45,0.75 -1.45,1.65 v 16.27 c 0,0.9 0.69,1.58 1.45,1.58 h 803.02 c 0.83,0 1.45,-0.68 1.45,-1.58 v -16.27 c 0,-0.9 -0.62,-1.65 -1.45,-1.65 z" />
		</g><g
   v:groupContext="group"
   v:mID="9"
   transform="translate(358.33267,-74.25)"
   id="group9-16">
			<title
   id="title4527">Sheet.9</title>
			<g
   transform="translate(4.35,-12.3)"
   v:groupContext="shape"
   v:mID="10"
   id="shape10-17">
				<title
   id="title4529">Sheet.10</title>
				<path
   style="fill:#000000;stroke:none;stroke-width:0.75;stroke-linecap:butt"
   inkscape:connector-curvature="0"
   id="path4531"
   class="st1"
   d="m 3.82,593.4 c 0,1.05 -0.9,1.88 -1.95,1.88 -1.04,0 -1.87,-0.83 -1.87,-1.88 0,-1.05 0.83,-1.95 1.87,-1.95 1.05,0 1.95,0.9 1.95,1.95 z" />
			</g>
			<g
   transform="translate(3.9)"
   v:groupContext="shape"
   v:mID="11"
   id="shape11-19">
				<title
   id="title4534">Sheet.11</title>
				<path
   style="fill:#000000;stroke:none;stroke-width:0.75;stroke-linecap:butt"
   inkscape:connector-curvature="0"
   id="path4536"
   class="st1"
   d="M 1.95,595.28 H 0.53 C 0.23,595.28 0,595.05 0,594.75 v -9.3 c 0,-0.22 0.23,-0.52 0.53,-0.52 h 1.42 c 0.3,0 0.6,0.3 0.6,0.52 v 9.3 c 0,0.3 -0.3,0.53 -0.6,0.53 z" />
			</g>
			<g
   transform="translate(6.225)"
   v:groupContext="shape"
   v:mID="12"
   id="shape12-21">
				<title
   id="title4539">Sheet.12</title>
				<path
   style="fill:#000000;stroke:none;stroke-width:0.75;stroke-linecap:butt"
   inkscape:connector-curvature="0"
   id="path4541"
   class="st1"
   d="M 2.33,595.28 H 3.9 c 0.3,0 0.53,-0.3 0.45,-0.53 l -1.8,-9.22 c 0,-0.3 -0.22,-0.6 -0.52,-0.6 h -1.5 c -0.3,0 -0.53,0.3 -0.53,0.6 l 1.8,9.22 c 0.08,0.3 0.3,0.53 0.53,0.53 z" />
			</g>
			<g
   transform="translate(3.9,-5.7)"
   v:groupContext="shape"
   v:mID="13"
   id="shape13-23">
				<title
   id="title4544">Sheet.13</title>
				<path
   style="fill:#000000;stroke:none;stroke-width:0.75;stroke-linecap:butt"
   inkscape:connector-curvature="0"
   id="path4546"
   class="st1"
   d="M 0.75,595.28 H 4.2 c 0.38,0 0.75,-0.3 0.75,-0.75 v -4.43 c 0,-0.37 -0.37,-0.75 -0.75,-0.75 H 0.75 C 0.3,589.35 0,589.73 0,590.1 v 4.43 c 0,0.45 0.3,0.75 0.75,0.75 z" />
			</g>
			<g
   transform="translate(7.125,-9.675)"
   v:groupContext="shape"
   v:mID="14"
   id="shape14-25">
				<title
   id="title4549">Sheet.14</title>
				<path
   style="fill:#000000;stroke:none;stroke-width:0.75;stroke-linecap:butt"
   inkscape:connector-curvature="0"
   id="path4551"
   class="st1"
   d="m 6.67,594.98 c -0.15,0.15 -0.45,0.3 -0.67,0.3 H 0.97 C 0.45,595.28 0,594.83 0,594.3 c 0,-0.52 0.45,-0.97 0.97,-0.97 H 6 c 0.52,0 0.97,0.45 0.97,0.97 0,0.3 -0.15,0.53 -0.3,0.68 z" />
			</g>
			<g
   transform="translate(0,-6)"
   v:groupContext="shape"
   v:mID="15"
   id="shape15-27">
				<title
   id="title4554">Sheet.15</title>
				<path
   style="fill:#000000;stroke:none;stroke-width:0.75;stroke-linecap:butt"
   inkscape:connector-curvature="0"
   id="path4556"
   class="st1"
   d="m 3.15,590.18 c -0.97,0 -1.87,0.45 -2.25,1.35 -0.9,1.87 0.45,3.75 2.25,3.75 z" />
			</g>
		</g><g
   v:groupContext="group"
   v:mID="16"
   transform="translate(370.40767,-74.25)"
   id="group16-29">
			<title
   id="title4560">Sheet.16</title>
			<g
   transform="translate(5.325)"
   v:groupContext="shape"
   v:mID="17"
   id="shape17-30">
				<title
   id="title4562">Sheet.17</title>
				<path
   style="fill:#000000;stroke:none;stroke-width:0.75;stroke-linecap:butt"
   inkscape:connector-curvature="0"
   id="path4564"
   class="st1"
   d="M 2.03,595.28 H 0.53 C 0.23,595.28 0,595.05 0,594.75 v -9.3 c 0,-0.22 0.23,-0.52 0.53,-0.52 h 1.5 c 0.22,0 0.52,0.3 0.52,0.52 v 9.3 c 0,0.3 -0.3,0.53 -0.52,0.53 z" />
			</g>
			<g
   transform="translate(6.6,-17.625)"
   v:groupContext="shape"
   v:mID="18"
   id="shape18-32">
				<title
   id="title4567">Sheet.18</title>
				<path
   style="fill:#000000;stroke:none;stroke-width:0.75;stroke-linecap:butt"
   inkscape:connector-curvature="0"
   id="path4569"
   class="st1"
   d="m 3.82,593.33 c 0,1.05 -0.82,1.95 -1.87,1.95 -1.05,0 -1.95,-0.9 -1.95,-1.95 0,-1.05 0.9,-1.88 1.95,-1.88 1.05,0 1.87,0.83 1.87,1.88 z" />
			</g>
			<g
   transform="translate(5.325,-8.325)"
   v:groupContext="shape"
   v:mID="19"
   id="shape19-34">
				<title
   id="title4572">Sheet.19</title>
				<path
   style="fill:#000000;stroke:none;stroke-width:0.75;stroke-linecap:butt"
   inkscape:connector-curvature="0"
   id="path4574"
   class="st1"
   d="m 0.9,595.28 h 3.15 c 0.45,0 0.9,-0.38 0.9,-0.9 v -6.68 c 0,-0.52 -0.45,-0.9 -0.9,-0.9 H 0.9 c -0.52,0 -0.9,0.38 -0.9,0.9 v 6.68 c 0,0.52 0.38,0.9 0.9,0.9 z" />
			</g>
			<g
   transform="translate(7.575)"
   v:groupContext="shape"
   v:mID="20"
   id="shape20-36">
				<title
   id="title4577">Sheet.20</title>
				<path
   style="fill:#000000;stroke:none;stroke-width:0.75;stroke-linecap:butt"
   inkscape:connector-curvature="0"
   id="path4579"
   class="st1"
   d="m 2.48,595.28 h 1.57 c 0.3,0 0.6,-0.3 0.53,-0.53 L 2.7,585.53 c 0,-0.3 -0.22,-0.6 -0.52,-0.6 H 0.53 c -0.3,0 -0.53,0.3 -0.53,0.6 l 1.87,9.22 c 0.08,0.3 0.3,0.53 0.6,0.53 z" />
			</g>
			<g
   transform="translate(0,-9.675)"
   v:groupContext="shape"
   v:mID="21"
   id="shape21-38">
				<title
   id="title4582">Sheet.21</title>
				<path
   style="fill:#000000;stroke:none;stroke-width:0.75;stroke-linecap:butt"
   inkscape:connector-curvature="0"
   id="path4584"
   class="st1"
   d="m 1.05,595.28 c -0.22,0 -0.52,-0.08 -0.67,-0.3 C 0,594.6 0,594 0.38,593.63 l 5.17,-5.18 c 0.37,-0.37 0.97,-0.37 1.35,0 0.37,0.38 0.37,0.98 0,1.35 l -5.18,5.18 c -0.22,0.22 -0.45,0.3 -0.67,0.3 z" />
			</g>
			<g
   transform="translate(8.4,-14.85)"
   v:groupContext="shape"
   v:mID="22"
   id="shape22-40">
				<title
   id="title4587">Sheet.22</title>
				<path
   style="fill:#000000;stroke:none;stroke-width:0.75;stroke-linecap:butt"
   inkscape:connector-curvature="0"
   id="path4589"
   class="st1"
   d="M 0.98,595.28 C 0.45,595.28 0,594.83 0,594.3 c 0,-0.52 0.45,-0.97 0.98,-0.97 1.57,0 2.55,0 2.92,-0.3 0.37,-0.3 0.67,-1.13 1.2,-2.7 0.23,-0.53 0.75,-0.83 1.2,-0.6 0.53,0.15 0.83,0.67 0.68,1.2 -0.68,1.95 -1.05,3 -1.95,3.67 -0.91,0.68 -2.03,0.68 -4.05,0.68 z" />
			</g>
		</g><g
   v:groupContext="group"
   v:mID="23"
   transform="translate(114.295,-74.532175)"
   id="group23-42">
			<title
   id="title4593">Sheet.23</title>
			<g
   transform="translate(5.325,-0.075)"
   v:groupContext="shape"
   v:mID="24"
   id="shape24-43">
				<title
   id="title4595">Sheet.24</title>
				<path
   style="fill:#000000;stroke:none;stroke-width:0.75;stroke-linecap:butt"
   inkscape:connector-curvature="0"
   id="path4597"
   class="st1"
   d="M 2.02,595.28 H 0.53 C 0.23,595.28 0,595.05 0,594.75 v -9.22 C 0,585.23 0.22,585 0.53,585 h 1.49 c 0.23,0 0.53,0.23 0.53,0.53 v 9.22 c 0,0.3 -0.3,0.53 -0.53,0.53 z" />
			</g>
			<g
   transform="translate(6.6,-17.7)"
   v:groupContext="shape"
   v:mID="25"
   id="shape25-45">
				<title
   id="title4600">Sheet.25</title>
				<path
   style="fill:#000000;stroke:none;stroke-width:0.75;stroke-linecap:butt"
   inkscape:connector-curvature="0"
   id="path4602"
   class="st1"
   d="m 3.82,593.4 c 0,1.05 -0.82,1.88 -1.87,1.88 -1.05,0 -1.95,-0.83 -1.95,-1.88 0,-1.05 0.9,-1.95 1.95,-1.95 1.05,0 1.87,0.9 1.87,1.95 z" />
			</g>
			<g
   transform="translate(5.325,-8.4)"
   v:groupContext="shape"
   v:mID="26"
   id="shape26-47">
				<title
   id="title4605">Sheet.26</title>
				<path
   style="fill:#000000;stroke:none;stroke-width:0.75;stroke-linecap:butt"
   inkscape:connector-curvature="0"
   id="path4607"
   class="st1"
   d="m 0.9,595.28 h 3.15 c 0.45,0 0.9,-0.38 0.9,-0.9 v -6.68 c 0,-0.45 -0.45,-0.9 -0.9,-0.9 H 0.9 c -0.53,0 -0.9,0.45 -0.9,0.9 v 6.68 c 0,0.52 0.37,0.9 0.9,0.9 z" />
			</g>
			<g
   transform="translate(7.575,-0.075)"
   v:groupContext="shape"
   v:mID="27"
   id="shape27-49">
				<title
   id="title4610">Sheet.27</title>
				<path
   style="fill:#000000;stroke:none;stroke-width:0.75;stroke-linecap:butt"
   inkscape:connector-curvature="0"
   id="path4612"
   class="st1"
   d="m 2.48,595.28 h 1.57 c 0.3,0 0.6,-0.23 0.53,-0.53 L 2.7,585.53 C 2.7,585.23 2.48,585 2.18,585 H 0.53 C 0.23,585 0,585.23 0,585.53 l 1.87,9.22 c 0.08,0.3 0.3,0.53 0.6,0.53 z" />
			</g>
			<g
   transform="translate(0,-9.75)"
   v:groupContext="shape"
   v:mID="28"
   id="shape28-51">
				<title
   id="title4615">Sheet.28</title>
				<path
   style="fill:#000000;stroke:none;stroke-width:0.75;stroke-linecap:butt"
   inkscape:connector-curvature="0"
   id="path4617"
   class="st1"
   d="m 1.05,595.28 c -0.22,0 -0.52,-0.08 -0.67,-0.3 C 0,594.6 0,594 0.38,593.63 l 5.17,-5.18 c 0.37,-0.37 0.97,-0.37 1.35,0 0.37,0.38 0.37,0.98 0,1.35 l -5.18,5.18 c -0.22,0.22 -0.45,0.3 -0.67,0.3 z" />
			</g>
			<g
   transform="translate(8.325,-9.75)"
   v:groupContext="shape"
   v:mID="29"
   id="shape29-53">
				<title
   id="title4620">Sheet.29</title>
				<path
   style="fill:#000000;stroke:none;stroke-width:0.75;stroke-linecap:butt"
   inkscape:connector-curvature="0"
   id="path4622"
   class="st1"
   d="m 6.22,595.28 c -0.22,0 -0.45,-0.08 -0.67,-0.3 L 0.37,589.8 c -0.37,-0.37 -0.37,-0.97 0,-1.35 0.38,-0.37 0.98,-0.37 1.35,0 l 5.18,5.18 c 0.37,0.37 0.37,0.97 0,1.35 -0.15,0.22 -0.38,0.3 -0.68,0.3 z" />
			</g>
			<g
   transform="translate(0.825)"
   v:groupContext="shape"
   v:mID="30"
   id="shape30-55">
				<title
   id="title4625">Sheet.30</title>
				<path
   style="fill:#000000;stroke:none;stroke-width:0.75;stroke-linecap:butt"
   inkscape:connector-curvature="0"
   id="path4627"
   class="st1"
   d="m 0.53,594.98 c 0,0.3 -0.53,0.3 -0.53,0 V 584.1 h 0.53 z" />
			</g>
		</g><g
   v:groupContext="group"
   v:mID="31"
   transform="translate(352.06967,-73.95)"
   id="group31-57">
			<title
   id="title4631">Sheet.31</title>
			<g
   v:groupContext="shape"
   v:mID="32"
   id="shape32-58">
				<title
   id="title4633">Sheet.32</title>
				<path
   style="fill:#000000;stroke:none;stroke-width:0.75;stroke-linecap:butt"
   inkscape:connector-curvature="0"
   id="path4635"
   class="st1"
   d="M 4.73,595.28 H 0 v -38.93 h 4.73 z" />
			</g>
			<g
   transform="translate(0,-32.55)"
   v:groupContext="shape"
   v:mID="33"
   id="shape33-60">
				<title
   id="title4638">Sheet.33</title>
				<path
   style="fill:#f8b133;stroke:none;stroke-width:0.75;stroke-linecap:butt"
   inkscape:connector-curvature="0"
   id="path4640"
   class="st2"
   d="M 4.73,595.28 H 0 v -4.13 h 4.73 z" />
			</g>
		</g><g
   v:groupContext="group"
   v:mID="34"
   transform="translate(465.85369,-73.9125)"
   id="group34-62">
			<title
   id="title4644">Sheet.34</title>
			<g
   v:groupContext="shape"
   v:mID="35"
   id="shape35-63">
				<title
   id="title4646">Sheet.35</title>
				<path
   style="fill:#000000;stroke:none;stroke-width:0.75;stroke-linecap:butt"
   inkscape:connector-curvature="0"
   id="path4648"
   class="st1"
   d="M 4.73,595.28 H 0 v -38.93 h 4.73 z" />
			</g>
			<g
   transform="translate(0,-32.55)"
   v:groupContext="shape"
   v:mID="36"
   id="shape36-65">
				<title
   id="title4651">Sheet.36</title>
				<path
   style="fill:#f8b133;stroke:none;stroke-width:0.75;stroke-linecap:butt"
   inkscape:connector-curvature="0"
   id="path4653"
   class="st2"
   d="M 4.73,595.28 H 0 v -4.13 h 4.73 z" />
			</g>
		</g><g
   v:groupContext="group"
   v:mID="37"
   transform="translate(108,-73.95)"
   id="group37-67">
			<title
   id="title4657">Sheet.37</title>
			<g
   v:groupContext="shape"
   v:mID="38"
   id="shape38-68">
				<title
   id="title4659">Sheet.38</title>
				<path
   style="fill:#000000;stroke:none;stroke-width:0.75;stroke-linecap:butt"
   inkscape:connector-curvature="0"
   id="path4661"
   class="st1"
   d="M 4.65,595.28 H 0 v -38.93 h 4.65 z" />
			</g>
			<g
   transform="translate(0,-32.55)"
   v:groupContext="shape"
   v:mID="39"
   id="shape39-70">
				<title
   id="title4664">Sheet.39</title>
				<path
   style="fill:#f8b133;stroke:none;stroke-width:0.75;stroke-linecap:butt"
   inkscape:connector-curvature="0"
   id="path4666"
   class="st2"
   d="M 4.65,595.28 H 0 v -4.13 h 4.65 z" />
			</g>
		</g><g
   v:groupContext="group"
   v:mID="40"
   transform="translate(37.05,-74.25)"
   id="group40-72">
			<title
   id="title4670">Sheet.40</title>
			<g
   transform="translate(0,-2.85)"
   v:groupContext="shape"
   v:mID="41"
   id="shape41-73">
				<title
   id="title4672">Sheet.41</title>
				<path
   style="fill:#f8b133;stroke:none;stroke-width:0.75;stroke-linecap:butt"
   inkscape:connector-curvature="0"
   id="path4674"
   class="st2"
   d="m 64.43,592.73 c 0,0.15 -0.08,0.3 -0.23,0.37 -0.07,0.08 -0.22,0.15 -0.3,0.15 h -5.32 c -0.08,0 -0.23,-0.07 -0.3,-0.15 -0.15,-0.15 -0.15,-0.22 -0.23,-0.37 V 573.3 c 0,-0.07 0.08,-0.15 0.15,-0.3 0.15,-0.15 0.23,-0.15 0.38,-0.15 h 5.32 c 0.08,0 0.23,0 0.3,0.08 0.23,0.15 0.23,0.3 0.23,0.37 z m -8.41,-10.95 c 0,0.15 -0.07,0.3 -0.22,0.37 -0.08,0.08 -0.15,0.15 -0.3,0.15 h -8.17 c -0.08,0 -0.23,-0.07 -0.3,-0.15 C 46.8,582 46.8,581.93 46.8,581.78 v -8.48 c 0,-0.07 0.08,-0.15 0.15,-0.3 0.15,-0.15 0.23,-0.15 0.38,-0.15 h 8.17 c 0.15,0 0.23,0 0.3,0.08 0.23,0.15 0.23,0.3 0.23,0.37 z m -11.25,0 c 0,0.15 -0.07,0.3 -0.22,0.37 -0.08,0.08 -0.22,0.15 -0.3,0.15 h -8.17 c -0.08,0 -0.23,-0.07 -0.3,-0.15 -0.15,-0.15 -0.23,-0.22 -0.23,-0.37 v -8.48 c 0,-0.07 0.08,-0.15 0.15,-0.3 0.15,-0.15 0.23,-0.15 0.38,-0.15 h 8.17 c 0.15,0 0.22,0 0.3,0.08 0.22,0.15 0.22,0.3 0.22,0.37 z m -11.25,0 c 0,0.15 -0.07,0.3 -0.22,0.37 -0.08,0.08 -0.23,0.15 -0.3,0.15 h -8.17 c -0.08,0 -0.23,-0.07 -0.3,-0.15 C 24.3,582 24.3,581.93 24.3,581.78 v -8.48 c 0,-0.07 0.08,-0.15 0.15,-0.3 0.15,-0.15 0.23,-0.15 0.38,-0.15 H 33 c 0.07,0 0.22,0 0.3,0.08 0.22,0.15 0.22,0.3 0.22,0.37 z m -10.95,0 c 0,0.15 -0.07,0.3 -0.22,0.37 -0.08,0.08 -0.23,0.15 -0.3,0.15 h -8.18 c -0.15,0 -0.22,-0.07 -0.3,-0.15 -0.22,-0.15 -0.22,-0.22 -0.22,-0.37 v -8.48 c 0,-0.07 0,-0.15 0.08,-0.3 0.14,-0.15 0.29,-0.15 0.45,-0.15 h 8.17 c 0.08,0 0.23,0 0.3,0.08 0.15,0.15 0.15,0.3 0.23,0.37 z m -11.25,0 c 0,0.15 -0.07,0.3 -0.22,0.37 -0.08,0.08 -0.23,0.15 -0.3,0.15 H 2.62 c -0.15,0 -0.22,-0.07 -0.3,-0.15 C 2.1,582 2.1,581.93 2.1,581.78 v -8.48 c 0,-0.07 0,-0.15 0.08,-0.3 0.14,-0.15 0.29,-0.15 0.45,-0.15 h 8.17 c 0.08,0 0.23,0 0.3,0.08 0.15,0.15 0.22,0.3 0.22,0.37 z m 54.75,-11.85 c -0.22,-0.15 -0.45,-0.23 -0.59,-0.23 H 1.05 c -0.3,0 -0.6,0.15 -0.83,0.45 C 0.07,570.3 0,570.53 0,570.75 v 23.48 c 0,0.3 0.15,0.6 0.45,0.9 0.15,0.07 0.38,0.15 0.6,0.15 h 8.1 c 0.3,0 0.6,-0.08 0.83,-0.38 0.15,-0.22 0.15,-0.45 0.15,-0.6 0,-1.2 0.29,-2.47 1.05,-3.6 0.37,-0.45 0.82,-0.9 1.27,-1.27 0.52,-0.3 1.05,-0.6 1.58,-0.75 0.6,-0.23 1.2,-0.3 1.72,-0.3 1.13,0 2.33,0.37 3.3,1.05 0.52,0.37 0.9,0.82 1.28,1.27 0.37,0.53 0.6,1.05 0.82,1.58 0.15,0.6 0.23,1.2 0.23,1.72 0,0.38 0,0.83 0.45,1.13 0.15,0.07 0.37,0.15 0.52,0.15 H 43.5 c 0.08,0 0.23,0 0.3,-0.08 0.15,0 0.37,-0.15 0.53,-0.3 0.15,-0.22 0.15,-0.45 0.15,-0.6 0,-1.2 0.3,-2.47 1.05,-3.6 0.37,-0.45 0.82,-0.9 1.27,-1.27 0.53,-0.3 1.05,-0.6 1.58,-0.75 0.6,-0.23 1.2,-0.3 1.72,-0.3 1.13,0 2.33,0.37 3.3,1.05 0.53,0.37 0.9,0.82 1.28,1.27 0.37,0.53 0.6,1.05 0.82,1.58 0.15,0.6 0.23,1.2 0.23,1.72 0,0.38 0,0.83 0.45,1.13 0.15,0.07 0.37,0.15 0.52,0.15 h 8.78 c 0.3,0 0.6,-0.08 0.82,-0.45 0.15,-0.15 0.15,-0.38 0.15,-0.6 v -23.48 c 0,-0.3 -0.07,-0.6 -0.37,-0.82 z" />
			</g>
			<g
   transform="translate(46.2)"
   v:groupContext="shape"
   v:mID="42"
   id="shape42-75">
				<title
   id="title4677">Sheet.42</title>
				<path
   style="fill:#000000;stroke:none;stroke-width:0.75;stroke-linecap:butt"
   inkscape:connector-curvature="0"
   id="path4679"
   class="st1"
   d="m 6.45,587.85 c -0.37,-0.22 -0.75,-0.37 -1.2,-0.52 -0.37,-0.15 -0.75,-0.23 -1.2,-0.23 -0.82,0 -1.65,0.3 -2.4,0.75 -0.3,0.3 -0.67,0.6 -0.9,0.98 -0.22,0.3 -0.45,0.67 -0.6,1.12 -0.08,0.38 -0.15,0.83 -0.15,1.2 0,0.9 0.3,1.73 0.75,2.4 0.22,0.38 0.6,0.68 0.9,0.9 0.38,0.23 0.75,0.45 1.13,0.6 0.82,0.23 1.72,0.23 2.47,0 0.45,-0.15 0.83,-0.37 1.2,-0.6 0.3,-0.22 0.67,-0.52 0.9,-0.9 0.23,-0.37 0.45,-0.75 0.6,-1.12 0.08,-0.45 0.15,-0.83 0.15,-1.28 0,-0.82 -0.3,-1.65 -0.75,-2.32 -0.22,-0.38 -0.6,-0.68 -0.9,-0.98 z" />
			</g>
			<g
   transform="translate(11.7)"
   v:groupContext="shape"
   v:mID="43"
   id="shape43-77">
				<title
   id="title4682">Sheet.43</title>
				<path
   style="fill:#000000;stroke:none;stroke-width:0.75;stroke-linecap:butt"
   inkscape:connector-curvature="0"
   id="path4684"
   class="st1"
   d="M 6.45,587.85 C 6.08,587.63 5.7,587.48 5.33,587.33 4.88,587.18 4.5,587.1 4.05,587.1 c -0.82,0 -1.65,0.3 -2.32,0.75 -0.38,0.3 -0.68,0.6 -0.9,0.98 -0.3,0.3 -0.45,0.67 -0.6,1.12 -0.15,0.38 -0.23,0.83 -0.23,1.2 0,0.83 0.3,1.73 0.83,2.4 0.22,0.38 0.52,0.68 0.9,0.9 0.3,0.23 0.67,0.45 1.12,0.6 0.83,0.23 1.65,0.23 2.48,0 0.37,-0.15 0.75,-0.37 1.12,-0.6 0.38,-0.22 0.68,-0.52 0.9,-0.9 0.3,-0.37 0.45,-0.75 0.6,-1.12 0.15,-0.45 0.15,-0.83 0.15,-1.28 0,-0.82 -0.23,-1.65 -0.75,-2.32 -0.22,-0.38 -0.52,-0.68 -0.9,-0.98 z" />
			</g>
		</g><g
   v:groupContext="group"
   v:mID="44"
   transform="translate(212.85622,-73.987148)"
   id="group44-79">
			<title
   id="title4688">Sheet.44</title>
			<g
   v:groupContext="shape"
   v:mID="45"
   id="shape45-80">
				<title
   id="title4690">Sheet.45</title>
				<path
   style="fill:#000000;stroke:none;stroke-width:0.75;stroke-linecap:butt"
   inkscape:connector-curvature="0"
   id="path4692"
   class="st1"
   d="M 4.73,595.28 H 0 v -38.93 h 4.73 z" />
			</g>
			<g
   transform="translate(0,-32.55)"
   v:groupContext="shape"
   v:mID="46"
   id="shape46-82">
				<title
   id="title4695">Sheet.46</title>
				<path
   style="fill:#f8b133;stroke:none;stroke-width:0.75;stroke-linecap:butt"
   inkscape:connector-curvature="0"
   id="path4697"
   class="st2"
   d="M 4.73,595.28 H 0 v -4.13 h 4.73 z" />
			</g>
		</g><rect
   x="112.5"
   y="521.29285"
   width="100.35622"
   height="19.509274"
   class="st4"
   id="rect4705"
   style="fill:#e41a1c;stroke:none;stroke-width:0.60026479;stroke-linecap:round;stroke-linejoin:round" /><text
   x="149.48259"
   y="534.51752"
   class="st5"
   v:langID="1030"
   id="text4707"
   style="font-style:normal;font-variant:normal;font-weight:normal;font-stretch:normal;font-size:10.00003242px;font-family:'Latin Modern Sans';-inkscape-font-specification:'Latin Modern Sans';fill:#ffffff"><v:paragraph
   v:horizAlign="1" /><v:tabList />Link 1</text>

<rect
   x="217.53444"
   y="521.3421"
   width="134.53293"
   height="19.5112"
   class="st6"
   id="rect4714"
   style="fill:#377eb8;stroke:none;stroke-width:0.62020582;stroke-linecap:round;stroke-linejoin:round" /><text
   x="271.48038"
   y="534.56769"
   class="st5"
   v:langID="1030"
   id="text4716"
   style="font-style:normal;font-variant:normal;font-weight:normal;font-stretch:normal;font-size:10.00003242px;font-family:'Latin Modern Sans';-inkscape-font-specification:'Latin Modern Sans';fill:#ffffff"><v:paragraph
   v:horizAlign="1" /><v:tabList />Link 2</text>

<rect
   x="356.76599"
   y="521.39459"
   width="109.09999"
   height="19.5112"
   class="st7"
   id="rect4723"
   style="fill:#4daf4a;stroke:none;stroke-width:0.58793151;stroke-linecap:round;stroke-linejoin:round" /><text
   x="397.95547"
   y="534.51019"
   class="st5"
   v:langID="1030"
   id="text4725"
   style="font-style:normal;font-variant:normal;font-weight:normal;font-stretch:normal;font-size:10.00003242px;font-family:'Latin Modern Sans';-inkscape-font-specification:'Latin Modern Sans';fill:#ffffff"><v:paragraph
   v:horizAlign="1" /><v:tabList />Link 3</text>


<text
   xml:space="preserve"
   style="font-style:normal;font-variant:normal;font-weight:normal;font-stretch:normal;font-size:16.0000248px;line-height:1.25;font-family:'Latin Modern Roman';-inkscape-font-specification:'Latin Modern Roman, ';text-align:end;letter-spacing:0px;word-spacing:0px;text-anchor:end;fill:#000000;fill-opacity:1;stroke:none;stroke-width:0.75000113"
   x="116.33301"
   y="473.78809"
   id="text4618"><tspan
     sodipodi:role="line"
     id="tspan4616"
     x="116.33301"
     y="473.78809"
     style="font-style:normal;font-variant:normal;font-weight:normal;font-stretch:normal;font-size:16.0000248px;font-family:'Latin Modern Roman';-inkscape-font-specification:'Latin Modern Roman, ';stroke-width:0.75000113">A</tspan></text>
<text
   xml:space="preserve"
   style="font-style:normal;font-variant:normal;font-weight:normal;font-stretch:normal;font-size:16.0000248px;line-height:1.25;font-family:'Latin Modern Roman';-inkscape-font-specification:'Latin Modern Roman, ';text-align:end;letter-spacing:0px;word-spacing:0px;text-anchor:end;fill:#000000;fill-opacity:1;stroke:none;stroke-width:0.75000113"
   x="474.06644"
   y="473.78809"
   id="text4618-8"><tspan
     sodipodi:role="line"
     id="tspan4616-5"
     x="474.06644"
     y="473.78809"
     style="font-style:normal;font-variant:normal;font-weight:normal;font-stretch:normal;font-size:16.0000248px;font-family:'Latin Modern Roman';-inkscape-font-specification:'Latin Modern Roman, ';stroke-width:0.75000113">B</tspan></text>
</svg>