<?xml version="1.0" encoding="UTF-8" standalone="no"?>
<!DOCTYPE svg PUBLIC "-//W3C//DTD SVG 1.1//EN" "http://www.w3.org/Graphics/SVG/1.1/DTD/svg11.dtd">
<!-- Generated by Microsoft Visio, SVG Export data_shape.svg Page-1 -->
<svg xmlns="http://www.w3.org/2000/svg" xmlns:xlink="http://www.w3.org/1999/xlink" xmlns:ev="http://www.w3.org/2001/xml-events"
		xmlns:v="http://schemas.microsoft.com/visio/2003/SVGExtensions/" width="8.26772in" height="11.6929in"
		viewBox="0 0 595.276 841.89" xml:space="preserve" color-interpolation-filters="sRGB" class="st9">
	<v:documentProperties v:langID="1030" v:metric="true" v:viewMarkup="false">
		<v:userDefs>
			<v:ud v:nameU="msvNoAutoConnect" v:val="VT0(1):26"/>
		</v:userDefs>
	</v:documentProperties>

	<style type="text/css">
	<![CDATA[
		.st1 {fill:#ffffff;stroke:#000000;stroke-width:0.5}
		.st2 {fill:none;stroke:none;stroke-linecap:round;stroke-linejoin:round;stroke-width:0.75}
		.st3 {fill:#000000;font-family:Times New Roman;font-size:0.499992em;font-style:italic}
		.st4 {baseline-shift:-32.4949%;font-size:0.649897em;font-style:normal}
		.st5 {baseline-shift:-32.4949%;font-size:0.649897em}
		.st6 {marker-end:url(#mrkr2-243);stroke:#000000;stroke-linecap:round;stroke-linejoin:round;stroke-width:0.5}
		.st7 {fill:#000000;fill-opacity:1;stroke:#000000;stroke-opacity:1;stroke-width:0.16556291390728}
		.st8 {fill:#000000;font-family:Times New Roman;font-size:0.499992em}
		.st9 {fill:none;fill-rule:evenodd;font-size:12px;overflow:visible;stroke-linecap:square;stroke-miterlimit:3}
	]]>
	</style>

	<defs id="Markers">
		<g id="lend2">
			<path d="M 1 1 L 0 0 L 1 -1 L 1 1 " style="stroke:none"/>
		</g>
		<marker id="mrkr2-243" class="st7" v:arrowType="2" v:arrowSize="2" v:setback="6.04" refX="-6.04" orient="auto"
				markerUnits="strokeWidth" overflow="visible">
			<use xlink:href="#lend2" transform="scale(-6.04,-6.04) "/>
		</marker>
	</defs>
	<g v:mID="0" v:index="1" v:groupContext="foregroundPage">
		<title>Page-1</title>
		<v:pageProperties v:drawingScale="0.0393701" v:pageScale="0.0393701" v:drawingUnits="24" v:shadowOffsetX="8.50394"
				v:shadowOffsetY="-8.50394"/>
		<g id="group42-1" transform="translate(138.898,-625.925)" v:mID="42" v:groupContext="group">
			<title>Sheet.42</title>
			<g id="shape1-2" v:mID="1" v:groupContext="shape" transform="translate(6.4389E-06,-2.4806E-05)">
				<title>Sheet.1</title>
				<rect x="0" y="833.032" width="8.50393" height="8.85826" class="st1"/>
			</g>
			<g id="shape2-4" v:mID="2" v:groupContext="shape" transform="translate(8.50394,-2.4806E-05)">
				<title>Sheet.2</title>
				<rect x="0" y="833.032" width="8.50393" height="8.85826" class="st1"/>
			</g>
			<g id="shape3-6" v:mID="3" v:groupContext="shape" transform="translate(17.0079,-2.4806E-05)">
				<title>Sheet.3</title>
				<rect x="0" y="833.032" width="8.50393" height="8.85826" class="st1"/>
			</g>
			<g id="shape4-8" v:mID="4" v:groupContext="shape" transform="translate(25.5118,0)">
				<title>Sheet.4</title>
				<rect x="0" y="833.032" width="8.50393" height="8.85826" class="st1"/>
			</g>
			<g id="shape5-10" v:mID="5" v:groupContext="shape" transform="translate(34.0158,-1.13687E-13)">
				<title>Sheet.5</title>
				<rect x="0" y="833.032" width="8.50393" height="8.85826" class="st1"/>
			</g>
			<g id="shape6-12" v:mID="6" v:groupContext="shape" transform="translate(42.5197,-1.13687E-13)">
				<title>Sheet.6</title>
				<rect x="0" y="833.032" width="8.50393" height="8.85826" class="st1"/>
			</g>
			<g id="shape7-14" v:mID="7" v:groupContext="shape" transform="translate(6.4389E-06,-8.85829)">
				<title>Sheet.7</title>
				<rect x="0" y="833.032" width="8.50393" height="8.85826" class="st1"/>
			</g>
			<g id="shape8-16" v:mID="8" v:groupContext="shape" transform="translate(8.50394,-8.85829)">
				<title>Sheet.8</title>
				<rect x="0" y="833.032" width="8.50393" height="8.85826" class="st1"/>
			</g>
			<g id="shape9-18" v:mID="9" v:groupContext="shape" transform="translate(17.0079,-8.85829)">
				<title>Sheet.9</title>
				<rect x="0" y="833.032" width="8.50393" height="8.85826" class="st1"/>
			</g>
			<g id="shape10-20" v:mID="10" v:groupContext="shape" transform="translate(25.5118,-8.85826)">
				<title>Sheet.10</title>
				<rect x="0" y="833.032" width="8.50393" height="8.85826" class="st1"/>
			</g>
			<g id="shape11-22" v:mID="11" v:groupContext="shape" transform="translate(34.0158,-8.85826)">
				<title>Sheet.11</title>
				<rect x="0" y="833.032" width="8.50393" height="8.85826" class="st1"/>
			</g>
			<g id="shape12-24" v:mID="12" v:groupContext="shape" transform="translate(42.5197,-8.85826)">
				<title>Sheet.12</title>
				<rect x="0" y="833.032" width="8.50393" height="8.85826" class="st1"/>
			</g>
			<g id="shape13-26" v:mID="13" v:groupContext="shape" transform="translate(1.47298E-06,-17.3622)">
				<title>Sheet.13</title>
				<rect x="0" y="833.032" width="8.50393" height="8.85826" class="st1"/>
			</g>
			<g id="shape14-28" v:mID="14" v:groupContext="shape" transform="translate(8.50393,-17.3622)">
				<title>Sheet.14</title>
				<rect x="0" y="833.032" width="8.50393" height="8.85826" class="st1"/>
			</g>
			<g id="shape15-30" v:mID="15" v:groupContext="shape" transform="translate(17.0079,-17.3622)">
				<title>Sheet.15</title>
				<rect x="0" y="833.032" width="8.50393" height="8.85826" class="st1"/>
			</g>
			<g id="shape16-32" v:mID="16" v:groupContext="shape" transform="translate(25.5118,-17.3622)">
				<title>Sheet.16</title>
				<rect x="0" y="833.032" width="8.50393" height="8.85826" class="st1"/>
			</g>
			<g id="shape17-34" v:mID="17" v:groupContext="shape" transform="translate(34.0158,-17.3622)">
				<title>Sheet.17</title>
				<rect x="0" y="833.032" width="8.50393" height="8.85826" class="st1"/>
			</g>
			<g id="shape18-36" v:mID="18" v:groupContext="shape" transform="translate(42.5197,-17.3622)">
				<title>Sheet.18</title>
				<rect x="0" y="833.032" width="8.50393" height="8.85826" class="st1"/>
			</g>
			<g id="shape19-38" v:mID="19" v:groupContext="shape" transform="translate(4.96593E-06,-25.8662)">
				<title>Sheet.19</title>
				<rect x="0" y="833.032" width="8.50393" height="8.85826" class="st1"/>
			</g>
			<g id="shape20-40" v:mID="20" v:groupContext="shape" transform="translate(8.50394,-25.8662)">
				<title>Sheet.20</title>
				<rect x="0" y="833.032" width="8.50393" height="8.85826" class="st1"/>
			</g>
			<g id="shape21-42" v:mID="21" v:groupContext="shape" transform="translate(17.0079,-25.8662)">
				<title>Sheet.21</title>
				<rect x="0" y="833.032" width="8.50393" height="8.85826" class="st1"/>
			</g>
			<g id="shape22-44" v:mID="22" v:groupContext="shape" transform="translate(25.5118,-25.8661)">
				<title>Sheet.22</title>
				<rect x="0" y="833.032" width="8.50393" height="8.85826" class="st1"/>
			</g>
			<g id="shape23-46" v:mID="23" v:groupContext="shape" transform="translate(34.0158,-25.8661)">
				<title>Sheet.23</title>
				<rect x="0" y="833.032" width="8.50393" height="8.85826" class="st1"/>
			</g>
			<g id="shape24-48" v:mID="24" v:groupContext="shape" transform="translate(42.5197,-25.8661)">
				<title>Sheet.24</title>
				<rect x="0" y="833.032" width="8.50393" height="8.85826" class="st1"/>
			</g>
			<g id="shape25-50" v:mID="25" v:groupContext="shape" transform="translate(4.96593E-06,-34.7244)">
				<title>Sheet.25</title>
				<rect x="0" y="833.032" width="8.50393" height="8.85826" class="st1"/>
			</g>
			<g id="shape26-52" v:mID="26" v:groupContext="shape" transform="translate(8.50394,-34.7244)">
				<title>Sheet.26</title>
				<rect x="0" y="833.032" width="8.50393" height="8.85826" class="st1"/>
			</g>
			<g id="shape27-54" v:mID="27" v:groupContext="shape" transform="translate(17.0079,-34.7244)">
				<title>Sheet.27</title>
				<rect x="0" y="833.032" width="8.50393" height="8.85826" class="st1"/>
			</g>
			<g id="shape28-56" v:mID="28" v:groupContext="shape" transform="translate(25.5118,-34.7244)">
				<title>Sheet.28</title>
				<rect x="0" y="833.032" width="8.50393" height="8.85826" class="st1"/>
			</g>
			<g id="shape29-58" v:mID="29" v:groupContext="shape" transform="translate(34.0158,-34.7244)">
				<title>Sheet.29</title>
				<rect x="0" y="833.032" width="8.50393" height="8.85826" class="st1"/>
			</g>
			<g id="shape30-60" v:mID="30" v:groupContext="shape" transform="translate(42.5197,-34.7244)">
				<title>Sheet.30</title>
				<rect x="0" y="833.032" width="8.50393" height="8.85826" class="st1"/>
			</g>
			<g id="shape31-62" v:mID="31" v:groupContext="shape" transform="translate(7.99361E-15,-43.2284)">
				<title>Sheet.31</title>
				<rect x="0" y="833.032" width="8.50393" height="8.85826" class="st1"/>
			</g>
			<g id="shape32-64" v:mID="32" v:groupContext="shape" transform="translate(8.50393,-43.2284)">
				<title>Sheet.32</title>
				<rect x="0" y="833.032" width="8.50393" height="8.85826" class="st1"/>
			</g>
			<g id="shape33-66" v:mID="33" v:groupContext="shape" transform="translate(17.0079,-43.2284)">
				<title>Sheet.33</title>
				<rect x="0" y="833.032" width="8.50393" height="8.85826" class="st1"/>
			</g>
			<g id="shape34-68" v:mID="34" v:groupContext="shape" transform="translate(25.5118,-43.2283)">
				<title>Sheet.34</title>
				<rect x="0" y="833.032" width="8.50393" height="8.85826" class="st1"/>
			</g>
			<g id="shape35-70" v:mID="35" v:groupContext="shape" transform="translate(34.0158,-43.2283)">
				<title>Sheet.35</title>
				<rect x="0" y="833.032" width="8.50393" height="8.85826" class="st1"/>
			</g>
			<g id="shape36-72" v:mID="36" v:groupContext="shape" transform="translate(42.5197,-43.2283)">
				<title>Sheet.36</title>
				<rect x="0" y="833.032" width="8.50393" height="8.85826" class="st1"/>
			</g>
		</g>
		<g id="group43-74" transform="translate(133.228,-620.256)" v:mID="43" v:groupContext="group">
			<title>Sheet.43</title>
			<g id="shape44-75" v:mID="44" v:groupContext="shape" transform="translate(6.4389E-06,-2.4806E-05)">
				<title>Sheet.44</title>
				<rect x="0" y="833.032" width="8.50393" height="8.85826" class="st1"/>
			</g>
			<g id="shape45-77" v:mID="45" v:groupContext="shape" transform="translate(8.50394,-2.4806E-05)">
				<title>Sheet.45</title>
				<rect x="0" y="833.032" width="8.50393" height="8.85826" class="st1"/>
			</g>
			<g id="shape46-79" v:mID="46" v:groupContext="shape" transform="translate(17.0079,-2.4806E-05)">
				<title>Sheet.46</title>
				<rect x="0" y="833.032" width="8.50393" height="8.85826" class="st1"/>
			</g>
			<g id="shape47-81" v:mID="47" v:groupContext="shape" transform="translate(25.5118,0)">
				<title>Sheet.47</title>
				<rect x="0" y="833.032" width="8.50393" height="8.85826" class="st1"/>
			</g>
			<g id="shape48-83" v:mID="48" v:groupContext="shape" transform="translate(34.0158,-1.13687E-13)">
				<title>Sheet.48</title>
				<rect x="0" y="833.032" width="8.50393" height="8.85826" class="st1"/>
			</g>
			<g id="shape49-85" v:mID="49" v:groupContext="shape" transform="translate(42.5197,-1.13687E-13)">
				<title>Sheet.49</title>
				<rect x="0" y="833.032" width="8.50393" height="8.85826" class="st1"/>
			</g>
			<g id="shape50-87" v:mID="50" v:groupContext="shape" transform="translate(6.4389E-06,-8.85829)">
				<title>Sheet.50</title>
				<rect x="0" y="833.032" width="8.50393" height="8.85826" class="st1"/>
			</g>
			<g id="shape51-89" v:mID="51" v:groupContext="shape" transform="translate(8.50394,-8.85829)">
				<title>Sheet.51</title>
				<rect x="0" y="833.032" width="8.50393" height="8.85826" class="st1"/>
			</g>
			<g id="shape52-91" v:mID="52" v:groupContext="shape" transform="translate(17.0079,-8.85829)">
				<title>Sheet.52</title>
				<rect x="0" y="833.032" width="8.50393" height="8.85826" class="st1"/>
			</g>
			<g id="shape53-93" v:mID="53" v:groupContext="shape" transform="translate(25.5118,-8.85826)">
				<title>Sheet.53</title>
				<rect x="0" y="833.032" width="8.50393" height="8.85826" class="st1"/>
			</g>
			<g id="shape54-95" v:mID="54" v:groupContext="shape" transform="translate(34.0158,-8.85826)">
				<title>Sheet.54</title>
				<rect x="0" y="833.032" width="8.50393" height="8.85826" class="st1"/>
			</g>
			<g id="shape55-97" v:mID="55" v:groupContext="shape" transform="translate(42.5197,-8.85826)">
				<title>Sheet.55</title>
				<rect x="0" y="833.032" width="8.50393" height="8.85826" class="st1"/>
			</g>
			<g id="shape56-99" v:mID="56" v:groupContext="shape" transform="translate(1.47298E-06,-17.3622)">
				<title>Sheet.56</title>
				<rect x="0" y="833.032" width="8.50393" height="8.85826" class="st1"/>
			</g>
			<g id="shape57-101" v:mID="57" v:groupContext="shape" transform="translate(8.50393,-17.3622)">
				<title>Sheet.57</title>
				<rect x="0" y="833.032" width="8.50393" height="8.85826" class="st1"/>
			</g>
			<g id="shape58-103" v:mID="58" v:groupContext="shape" transform="translate(17.0079,-17.3622)">
				<title>Sheet.58</title>
				<rect x="0" y="833.032" width="8.50393" height="8.85826" class="st1"/>
			</g>
			<g id="shape59-105" v:mID="59" v:groupContext="shape" transform="translate(25.5118,-17.3622)">
				<title>Sheet.59</title>
				<rect x="0" y="833.032" width="8.50393" height="8.85826" class="st1"/>
			</g>
			<g id="shape60-107" v:mID="60" v:groupContext="shape" transform="translate(34.0158,-17.3622)">
				<title>Sheet.60</title>
				<rect x="0" y="833.032" width="8.50393" height="8.85826" class="st1"/>
			</g>
			<g id="shape61-109" v:mID="61" v:groupContext="shape" transform="translate(42.5197,-17.3622)">
				<title>Sheet.61</title>
				<rect x="0" y="833.032" width="8.50393" height="8.85826" class="st1"/>
			</g>
			<g id="shape62-111" v:mID="62" v:groupContext="shape" transform="translate(4.96593E-06,-25.8662)">
				<title>Sheet.62</title>
				<rect x="0" y="833.032" width="8.50393" height="8.85826" class="st1"/>
			</g>
			<g id="shape63-113" v:mID="63" v:groupContext="shape" transform="translate(8.50394,-25.8662)">
				<title>Sheet.63</title>
				<rect x="0" y="833.032" width="8.50393" height="8.85826" class="st1"/>
			</g>
			<g id="shape64-115" v:mID="64" v:groupContext="shape" transform="translate(17.0079,-25.8662)">
				<title>Sheet.64</title>
				<rect x="0" y="833.032" width="8.50393" height="8.85826" class="st1"/>
			</g>
			<g id="shape65-117" v:mID="65" v:groupContext="shape" transform="translate(25.5118,-25.8661)">
				<title>Sheet.65</title>
				<rect x="0" y="833.032" width="8.50393" height="8.85826" class="st1"/>
			</g>
			<g id="shape66-119" v:mID="66" v:groupContext="shape" transform="translate(34.0158,-25.8661)">
				<title>Sheet.66</title>
				<rect x="0" y="833.032" width="8.50393" height="8.85826" class="st1"/>
			</g>
			<g id="shape67-121" v:mID="67" v:groupContext="shape" transform="translate(42.5197,-25.8661)">
				<title>Sheet.67</title>
				<rect x="0" y="833.032" width="8.50393" height="8.85826" class="st1"/>
			</g>
			<g id="shape68-123" v:mID="68" v:groupContext="shape" transform="translate(4.96593E-06,-34.7244)">
				<title>Sheet.68</title>
				<rect x="0" y="833.032" width="8.50393" height="8.85826" class="st1"/>
			</g>
			<g id="shape69-125" v:mID="69" v:groupContext="shape" transform="translate(8.50394,-34.7244)">
				<title>Sheet.69</title>
				<rect x="0" y="833.032" width="8.50393" height="8.85826" class="st1"/>
			</g>
			<g id="shape70-127" v:mID="70" v:groupContext="shape" transform="translate(17.0079,-34.7244)">
				<title>Sheet.70</title>
				<rect x="0" y="833.032" width="8.50393" height="8.85826" class="st1"/>
			</g>
			<g id="shape71-129" v:mID="71" v:groupContext="shape" transform="translate(25.5118,-34.7244)">
				<title>Sheet.71</title>
				<rect x="0" y="833.032" width="8.50393" height="8.85826" class="st1"/>
			</g>
			<g id="shape72-131" v:mID="72" v:groupContext="shape" transform="translate(34.0158,-34.7244)">
				<title>Sheet.72</title>
				<rect x="0" y="833.032" width="8.50393" height="8.85826" class="st1"/>
			</g>
			<g id="shape73-133" v:mID="73" v:groupContext="shape" transform="translate(42.5197,-34.7244)">
				<title>Sheet.73</title>
				<rect x="0" y="833.032" width="8.50393" height="8.85826" class="st1"/>
			</g>
			<g id="shape74-135" v:mID="74" v:groupContext="shape" transform="translate(7.99361E-15,-43.2284)">
				<title>Sheet.74</title>
				<rect x="0" y="833.032" width="8.50393" height="8.85826" class="st1"/>
			</g>
			<g id="shape75-137" v:mID="75" v:groupContext="shape" transform="translate(8.50393,-43.2284)">
				<title>Sheet.75</title>
				<rect x="0" y="833.032" width="8.50393" height="8.85826" class="st1"/>
			</g>
			<g id="shape76-139" v:mID="76" v:groupContext="shape" transform="translate(17.0079,-43.2284)">
				<title>Sheet.76</title>
				<rect x="0" y="833.032" width="8.50393" height="8.85826" class="st1"/>
			</g>
			<g id="shape77-141" v:mID="77" v:groupContext="shape" transform="translate(25.5118,-43.2283)">
				<title>Sheet.77</title>
				<rect x="0" y="833.032" width="8.50393" height="8.85826" class="st1"/>
			</g>
			<g id="shape78-143" v:mID="78" v:groupContext="shape" transform="translate(34.0158,-43.2283)">
				<title>Sheet.78</title>
				<rect x="0" y="833.032" width="8.50393" height="8.85826" class="st1"/>
			</g>
			<g id="shape79-145" v:mID="79" v:groupContext="shape" transform="translate(42.5197,-43.2283)">
				<title>Sheet.79</title>
				<rect x="0" y="833.032" width="8.50393" height="8.85826" class="st1"/>
			</g>
		</g>
		<g id="group80-147" transform="translate(127.559,-614.764)" v:mID="80" v:groupContext="group">
			<title>Sheet.80</title>
			<g id="shape81-148" v:mID="81" v:groupContext="shape" transform="translate(6.4389E-06,-2.4806E-05)">
				<title>Sheet.81</title>
				<rect x="0" y="833.032" width="8.50393" height="8.85826" class="st1"/>
			</g>
			<g id="shape82-150" v:mID="82" v:groupContext="shape" transform="translate(8.50394,-2.4806E-05)">
				<title>Sheet.82</title>
				<rect x="0" y="833.032" width="8.50393" height="8.85826" class="st1"/>
			</g>
			<g id="shape83-152" v:mID="83" v:groupContext="shape" transform="translate(17.0079,-2.4806E-05)">
				<title>Sheet.83</title>
				<rect x="0" y="833.032" width="8.50393" height="8.85826" class="st1"/>
			</g>
			<g id="shape84-154" v:mID="84" v:groupContext="shape" transform="translate(25.5118,0)">
				<title>Sheet.84</title>
				<rect x="0" y="833.032" width="8.50393" height="8.85826" class="st1"/>
			</g>
			<g id="shape85-156" v:mID="85" v:groupContext="shape" transform="translate(34.0158,-1.13687E-13)">
				<title>Sheet.85</title>
				<rect x="0" y="833.032" width="8.50393" height="8.85826" class="st1"/>
			</g>
			<g id="shape86-158" v:mID="86" v:groupContext="shape" transform="translate(42.5197,-1.13687E-13)">
				<title>Sheet.86</title>
				<rect x="0" y="833.032" width="8.50393" height="8.85826" class="st1"/>
			</g>
			<g id="shape87-160" v:mID="87" v:groupContext="shape" transform="translate(6.4389E-06,-8.85829)">
				<title>Sheet.87</title>
				<rect x="0" y="833.032" width="8.50393" height="8.85826" class="st1"/>
			</g>
			<g id="shape88-162" v:mID="88" v:groupContext="shape" transform="translate(8.50394,-8.85829)">
				<title>Sheet.88</title>
				<rect x="0" y="833.032" width="8.50393" height="8.85826" class="st1"/>
			</g>
			<g id="shape89-164" v:mID="89" v:groupContext="shape" transform="translate(17.0079,-8.85829)">
				<title>Sheet.89</title>
				<rect x="0" y="833.032" width="8.50393" height="8.85826" class="st1"/>
			</g>
			<g id="shape90-166" v:mID="90" v:groupContext="shape" transform="translate(25.5118,-8.85826)">
				<title>Sheet.90</title>
				<rect x="0" y="833.032" width="8.50393" height="8.85826" class="st1"/>
			</g>
			<g id="shape91-168" v:mID="91" v:groupContext="shape" transform="translate(34.0158,-8.85826)">
				<title>Sheet.91</title>
				<rect x="0" y="833.032" width="8.50393" height="8.85826" class="st1"/>
			</g>
			<g id="shape92-170" v:mID="92" v:groupContext="shape" transform="translate(42.5197,-8.85826)">
				<title>Sheet.92</title>
				<rect x="0" y="833.032" width="8.50393" height="8.85826" class="st1"/>
			</g>
			<g id="shape93-172" v:mID="93" v:groupContext="shape" transform="translate(1.47298E-06,-17.3622)">
				<title>Sheet.93</title>
				<rect x="0" y="833.032" width="8.50393" height="8.85826" class="st1"/>
			</g>
			<g id="shape94-174" v:mID="94" v:groupContext="shape" transform="translate(8.50393,-17.3622)">
				<title>Sheet.94</title>
				<rect x="0" y="833.032" width="8.50393" height="8.85826" class="st1"/>
			</g>
			<g id="shape95-176" v:mID="95" v:groupContext="shape" transform="translate(17.0079,-17.3622)">
				<title>Sheet.95</title>
				<rect x="0" y="833.032" width="8.50393" height="8.85826" class="st1"/>
			</g>
			<g id="shape96-178" v:mID="96" v:groupContext="shape" transform="translate(25.5118,-17.3622)">
				<title>Sheet.96</title>
				<rect x="0" y="833.032" width="8.50393" height="8.85826" class="st1"/>
			</g>
			<g id="shape97-180" v:mID="97" v:groupContext="shape" transform="translate(34.0158,-17.3622)">
				<title>Sheet.97</title>
				<rect x="0" y="833.032" width="8.50393" height="8.85826" class="st1"/>
			</g>
			<g id="shape98-182" v:mID="98" v:groupContext="shape" transform="translate(42.5197,-17.3622)">
				<title>Sheet.98</title>
				<rect x="0" y="833.032" width="8.50393" height="8.85826" class="st1"/>
			</g>
			<g id="shape99-184" v:mID="99" v:groupContext="shape" transform="translate(4.96593E-06,-25.8662)">
				<title>Sheet.99</title>
				<rect x="0" y="833.032" width="8.50393" height="8.85826" class="st1"/>
			</g>
			<g id="shape100-186" v:mID="100" v:groupContext="shape" transform="translate(8.50394,-25.8662)">
				<title>Sheet.100</title>
				<rect x="0" y="833.032" width="8.50393" height="8.85826" class="st1"/>
			</g>
			<g id="shape101-188" v:mID="101" v:groupContext="shape" transform="translate(17.0079,-25.8662)">
				<title>Sheet.101</title>
				<rect x="0" y="833.032" width="8.50393" height="8.85826" class="st1"/>
			</g>
			<g id="shape102-190" v:mID="102" v:groupContext="shape" transform="translate(25.5118,-25.8661)">
				<title>Sheet.102</title>
				<rect x="0" y="833.032" width="8.50393" height="8.85826" class="st1"/>
			</g>
			<g id="shape103-192" v:mID="103" v:groupContext="shape" transform="translate(34.0158,-25.8661)">
				<title>Sheet.103</title>
				<rect x="0" y="833.032" width="8.50393" height="8.85826" class="st1"/>
			</g>
			<g id="shape104-194" v:mID="104" v:groupContext="shape" transform="translate(42.5197,-25.8661)">
				<title>Sheet.104</title>
				<rect x="0" y="833.032" width="8.50393" height="8.85826" class="st1"/>
			</g>
			<g id="shape105-196" v:mID="105" v:groupContext="shape" transform="translate(4.96593E-06,-34.7244)">
				<title>Sheet.105</title>
				<rect x="0" y="833.032" width="8.50393" height="8.85826" class="st1"/>
			</g>
			<g id="shape106-198" v:mID="106" v:groupContext="shape" transform="translate(8.50394,-34.7244)">
				<title>Sheet.106</title>
				<rect x="0" y="833.032" width="8.50393" height="8.85826" class="st1"/>
			</g>
			<g id="shape107-200" v:mID="107" v:groupContext="shape" transform="translate(17.0079,-34.7244)">
				<title>Sheet.107</title>
				<rect x="0" y="833.032" width="8.50393" height="8.85826" class="st1"/>
			</g>
			<g id="shape108-202" v:mID="108" v:groupContext="shape" transform="translate(25.5118,-34.7244)">
				<title>Sheet.108</title>
				<rect x="0" y="833.032" width="8.50393" height="8.85826" class="st1"/>
			</g>
			<g id="shape109-204" v:mID="109" v:groupContext="shape" transform="translate(34.0158,-34.7244)">
				<title>Sheet.109</title>
				<rect x="0" y="833.032" width="8.50393" height="8.85826" class="st1"/>
			</g>
			<g id="shape110-206" v:mID="110" v:groupContext="shape" transform="translate(42.5197,-34.7244)">
				<title>Sheet.110</title>
				<rect x="0" y="833.032" width="8.50393" height="8.85826" class="st1"/>
			</g>
			<g id="shape111-208" v:mID="111" v:groupContext="shape" transform="translate(7.99361E-15,-43.2284)">
				<title>Sheet.111</title>
				<rect x="0" y="833.032" width="8.50393" height="8.85826" class="st1"/>
			</g>
			<g id="shape112-210" v:mID="112" v:groupContext="shape" transform="translate(8.50393,-43.2284)">
				<title>Sheet.112</title>
				<rect x="0" y="833.032" width="8.50393" height="8.85826" class="st1"/>
			</g>
			<g id="shape113-212" v:mID="113" v:groupContext="shape" transform="translate(17.0079,-43.2284)">
				<title>Sheet.113</title>
				<rect x="0" y="833.032" width="8.50393" height="8.85826" class="st1"/>
			</g>
			<g id="shape114-214" v:mID="114" v:groupContext="shape" transform="translate(25.5118,-43.2283)">
				<title>Sheet.114</title>
				<rect x="0" y="833.032" width="8.50393" height="8.85826" class="st1"/>
			</g>
			<g id="shape115-216" v:mID="115" v:groupContext="shape" transform="translate(34.0158,-43.2283)">
				<title>Sheet.115</title>
				<rect x="0" y="833.032" width="8.50393" height="8.85826" class="st1"/>
			</g>
			<g id="shape116-218" v:mID="116" v:groupContext="shape" transform="translate(42.5197,-43.2283)">
				<title>Sheet.116</title>
				<rect x="0" y="833.032" width="8.50393" height="8.85826" class="st1"/>
			</g>
		</g>
		<g id="shape37-220" v:mID="37" v:groupContext="shape" transform="translate(167.244,-597.26)">
			<title>Sheet.37</title>
			<desc>t-1</desc>
			<v:textBlock v:margins="rect(4,4,4,4)" v:tabSpace="42.5197" v:verticalAlign="0"/>
			<v:textRect cx="7.08661" cy="831.543" width="14.18" height="20.6929"/>
			<rect x="0" y="821.197" width="14.1732" height="20.6929" class="st2"/>
			<text x="4.63" y="830.6" class="st3" v:langID="1030"><v:paragraph v:horizAlign="1"/><v:tabList/>t<tspan dy="-0.279em"
						class="st4" v:baseFontSize="6">-</tspan><tspan class="st4" v:baseFontSize="6">1</tspan></text>		</g>
		<g id="shape39-225" v:mID="39" v:groupContext="shape" transform="translate(124.724,-597.26)">
			<title>Sheet.39</title>
			<desc>t-w</desc>
			<v:textBlock v:margins="rect(4,4,4,4)" v:tabSpace="42.5197" v:verticalAlign="0"/>
			<v:textRect cx="7.08661" cy="831.543" width="14.18" height="20.6929"/>
			<rect x="0" y="821.197" width="14.1732" height="20.6929" class="st2"/>
			<text x="4.3" y="830.6" class="st3" v:langID="1030"><v:paragraph v:horizAlign="1"/><v:tabList/>t<tspan dy="-0.279em"
						class="st4" v:baseFontSize="6">-</tspan><tspan class="st5" v:baseFontSize="6">w</tspan></text>		</g>
		<g id="shape40-230" v:mID="40" v:groupContext="shape" transform="translate(116.22,-610.866)">
			<title>Sheet.40</title>
			<desc>l1</desc>
			<v:textBlock v:margins="rect(4,4,4,4)" v:tabSpace="42.5197"/>
			<v:textRect cx="7.08661" cy="833.386" width="14.18" height="17.0079"/>
			<rect x="0" y="824.882" width="14.1732" height="17.0079" class="st2"/>
			<text x="5.28" y="835.19" class="st3" v:langID="1030"><v:paragraph v:horizAlign="1"/><v:tabList/>l<tspan dy="-0.279em"
						class="st5" v:baseFontSize="6">1</tspan></text>		</g>
		<g id="shape41-234" v:mID="41" v:groupContext="shape" transform="translate(116.22,-653.917)">
			<title>Sheet.41</title>
			<desc>lk</desc>
			<v:textBlock v:margins="rect(4,4,4,4)" v:tabSpace="42.5197"/>
			<v:textRect cx="7.08661" cy="833.386" width="14.18" height="17.0079"/>
			<rect x="0" y="824.882" width="14.1732" height="17.0079" class="st2"/>
			<text x="5.39" y="835.19" class="st3" v:langID="1030"><v:paragraph v:horizAlign="1"/><v:tabList/>l<tspan dy="-0.279em"
						class="st5" v:baseFontSize="6">k</tspan></text>		</g>
		<g id="shape117-238" v:mID="117" v:groupContext="shape" transform="translate(127.559,-600.945)">
			<title>Sheet.117</title>
			<path d="M0 841.89 L59.34 841.89" class="st6"/>
		</g>
		<g id="shape118-244" v:mID="118" v:groupContext="shape" transform="translate(127.559,-592.441)">
			<title>Sheet.118</title>
			<desc>Time</desc>
			<v:textBlock v:margins="rect(4,4,4,4)" v:tabSpace="42.5197"/>
			<v:textRect cx="31.1811" cy="837.559" width="62.37" height="8.66142"/>
			<rect x="0" y="833.228" width="62.3622" height="8.66142" class="st2"/>
			<text x="24.85" y="839.36" class="st8" v:langID="1030"><v:paragraph v:horizAlign="1"/><v:tabList/>Time</text>		</g>
		<g id="shape120-247" v:mID="120" v:groupContext="shape" transform="translate(-728.504,226.772) rotate(-90)">
			<title>Sheet.120</title>
			<path d="M0 841.89 L60.76 841.89" class="st6"/>
		</g>
		<g id="shape122-252" v:mID="122" v:groupContext="shape" transform="translate(-728.504,227.126) rotate(-90)">
			<title>Sheet.122</title>
			<desc>Links</desc>
			<v:textBlock v:margins="rect(4,4,4,4)" v:tabSpace="42.5197"/>
			<v:textRect cx="31.1811" cy="837.559" width="62.37" height="8.66142"/>
			<rect x="0" y="833.228" width="62.3622" height="8.66142" class="st2"/>
			<text x="24.35" y="839.36" class="st8" v:langID="1030"><v:paragraph v:horizAlign="1"/><v:tabList/>Links</text>		</g>
		<g id="shape123-255" v:mID="123" v:groupContext="shape" transform="translate(-395.01,-424.935) rotate(-44.5489)">
			<title>Sheet.123</title>
			<path d="M0 841.89 L12.89 841.89" class="st6"/>
		</g>
		<g id="shape124-260" v:mID="124" v:groupContext="shape" transform="translate(198.425,-664.646)">
			<title>Sheet.124</title>
			<desc>Samples</desc>
			<v:textBlock v:margins="rect(4,4,4,4)" v:tabSpace="42.5197"/>
			<v:textRect cx="14.1732" cy="837.559" width="28.35" height="8.66142"/>
			<rect x="0" y="833.228" width="28.3465" height="8.66142" class="st2"/>
			<text x="4" y="839.36" class="st8" v:langID="1030"><v:paragraph/><v:tabList/>Samples</text>		</g>
	</g>
</svg>
